<?xml version="1.0" encoding="UTF-8" standalone="no"?>
<!-- Created with Inkscape (http://www.inkscape.org/) -->
<svg
   xmlns:dc="http://purl.org/dc/elements/1.1/"
   xmlns:cc="http://creativecommons.org/ns#"
   xmlns:rdf="http://www.w3.org/1999/02/22-rdf-syntax-ns#"
   xmlns:svg="http://www.w3.org/2000/svg"
   xmlns="http://www.w3.org/2000/svg"
   xmlns:sodipodi="http://sodipodi.sourceforge.net/DTD/sodipodi-0.dtd"
   xmlns:inkscape="http://www.inkscape.org/namespaces/inkscape"
   width="744.09448819"
   height="1052.3622047"
   id="svg2419"
   sodipodi:version="0.32"
   inkscape:version="0.46+pre4"
   sodipodi:docname="brain.svg"
   inkscape:output_extension="org.inkscape.output.svg.inkscape">
  <defs
     id="defs2421">
    <inkscape:perspective
       sodipodi:type="inkscape:persp3d"
       inkscape:vp_x="0 : 526.18109 : 1"
       inkscape:vp_y="0 : 1000 : 0"
       inkscape:vp_z="744.09448 : 526.18109 : 1"
       inkscape:persp3d-origin="372.04724 : 350.78739 : 1"
       id="perspective2427" />
    <inkscape:perspective
       id="perspective2436"
       inkscape:persp3d-origin="372.04724 : 350.78739 : 1"
       inkscape:vp_z="744.09448 : 526.18109 : 1"
       inkscape:vp_y="0 : 1000 : 0"
       inkscape:vp_x="0 : 526.18109 : 1"
       sodipodi:type="inkscape:persp3d" />
    <inkscape:perspective
       id="perspective2449"
       inkscape:persp3d-origin="372.04724 : 350.78739 : 1"
       inkscape:vp_z="744.09448 : 526.18109 : 1"
       inkscape:vp_y="0 : 1000 : 0"
       inkscape:vp_x="0 : 526.18109 : 1"
       sodipodi:type="inkscape:persp3d" />
    <inkscape:perspective
       id="perspective2462"
       inkscape:persp3d-origin="372.04724 : 350.78739 : 1"
       inkscape:vp_z="744.09448 : 526.18109 : 1"
       inkscape:vp_y="0 : 1000 : 0"
       inkscape:vp_x="0 : 526.18109 : 1"
       sodipodi:type="inkscape:persp3d" />
  </defs>
  <sodipodi:namedview
     id="base"
     pagecolor="#ffffff"
     bordercolor="#666666"
     borderopacity="1.0"
     gridtolerance="10000"
     guidetolerance="10"
     objecttolerance="10"
     inkscape:pageopacity="0.0"
     inkscape:pageshadow="2"
     inkscape:zoom="0.35"
     inkscape:cx="-146.51515"
     inkscape:cy="599.02731"
     inkscape:document-units="px"
     inkscape:current-layer="layer1"
     showgrid="false"
     inkscape:window-width="1280"
     inkscape:window-height="751"
     inkscape:window-x="-4"
     inkscape:window-y="-4" />
  <metadata
     id="metadata2424">
    <rdf:RDF>
      <cc:Work
         rdf:about="">
        <dc:format>image/svg+xml</dc:format>
        <dc:type
           rdf:resource="http://purl.org/dc/dcmitype/StillImage" />
        <cc:license
           rdf:resource="" />
        <dc:title>Human brain</dc:title>
        <dc:subject>
          <rdf:Bag>
            <rdf:li>human brain nervous system cerebrum</rdf:li>
          </rdf:Bag>
        </dc:subject>
      </cc:Work>
    </rdf:RDF>
  </metadata>
  <g
     inkscape:label="Layer 1"
     inkscape:groupmode="layer"
     id="layer1">
    <path
       style="fill:#000000"
       d="M 382.60018,463.60667 L 375.64095,457.90838 L 383.58128,450.94085 C 392.43699,443.17009 391.86275,438.7992 382.8184,445.1341 C 379.62792,447.36881 374.4855,449.19721 371.39084,449.19721 C 368.29618,449.19721 365.0588,450.33854 364.19667,451.73349 C 363.33454,453.12844 358.76925,454.26976 354.05158,454.26976 C 349.3339,454.26976 344.76861,453.12844 343.90648,451.73349 C 343.04435,450.33854 336.76707,449.19721 329.95698,449.19721 C 323.14688,449.19721 316.8696,450.33854 316.00747,451.73349 C 315.14534,453.12844 306.23272,454.23631 296.20166,454.19542 C 279.59721,454.12773 277.22493,453.4493 269.72048,446.62234 C 265.18689,442.49805 261.47759,438.14309 261.47759,436.94468 C 261.47759,432.69041 270.84957,426.37075 277.15866,426.37075 C 280.68124,426.37075 286.64211,423.51744 290.40506,420.03007 C 294.52062,416.21589 300.25823,413.68938 304.80452,413.68938 C 309.18281,413.68938 312.97642,412.08892 313.82214,409.88497 C 314.82252,407.27804 318.98866,406.05401 327.05799,405.99618 C 340.51008,405.8998 353.29237,397.96616 348.20004,392.87383 C 346.07872,390.75252 344.92218,391.10587 343.71826,394.24321 C 342.51635,397.37536 338.94832,398.47174 329.95698,398.47174 C 321.50675,398.47174 317.37473,399.62775 316.35841,402.27615 C 315.43874,404.6728 311.55484,406.08056 305.86238,406.08056 C 300.16991,406.08056 296.28602,407.48832 295.36634,409.88497 C 294.56338,411.9774 291.81327,413.68938 289.25493,413.68938 C 286.69659,413.68938 283.89804,414.83071 283.03591,416.22566 C 282.17378,417.62061 278.32993,418.76193 274.49402,418.76193 C 270.65811,418.76193 265.30419,420.43762 262.59641,422.48569 C 259.88864,424.53373 255.64005,426.24571 253.15508,426.2901 C 250.67014,426.33446 247.98007,428.08274 247.17714,430.17516 C 244.68044,436.68149 222.95583,435.22968 216.26677,428.10949 C 213.23371,424.88094 210.75212,421.08526 210.75212,419.67463 C 210.75212,415.30988 222.21532,406.08056 227.63653,406.08056 C 230.46584,406.08056 237.81089,403.24202 243.95884,399.77267 C 250.10676,396.30335 256.84889,392.79607 258.94131,391.97873 C 261.03374,391.16136 264.72754,389.43462 267.14979,388.1415 C 269.57203,386.84838 281.3657,385.79037 293.35794,385.79037 C 309.67092,385.79037 314.89737,384.99195 314.11102,382.62003 C 312.41809,377.51332 265.72138,376.8725 261.54997,381.89874 C 259.77359,384.03913 256.31706,385.79037 253.86877,385.79037 C 251.42048,385.79037 247.99651,387.50236 246.25994,389.59478 C 244.52339,391.68721 240.01729,393.39919 236.24641,393.39919 C 232.2125,393.39919 226.93824,396.00925 223.43349,399.73988 C 220.15728,403.22725 215.53277,406.08056 213.15684,406.08056 C 210.78091,406.08056 207.41613,407.79255 205.67957,409.88497 C 203.54231,412.46023 197.80622,413.68938 187.92566,413.68938 C 178.0451,413.68938 172.30901,412.46023 170.17174,409.88497 C 168.43518,407.79255 163.85226,406.08056 159.98744,406.08056 C 156.08099,406.08056 152.31224,407.77 151.50063,409.88497 C 150.6977,411.9774 147.95056,413.68938 145.39585,413.68938 C 142.84116,413.68938 139.44085,414.99949 137.83963,416.60072 C 133.99903,420.44132 71.780707,420.30008 67.922629,416.442 C 66.408702,414.92807 63.339507,413.68938 61.10226,413.68938 C 50.910092,413.68938 35.729454,389.23697 43.095376,384.68458 C 47.159273,382.17296 56.039426,362.97081 56.039426,356.6948 C 56.039426,353.33271 57.180749,349.87653 58.5757,349.0144 C 59.97065,348.15227 61.111974,337.95275 61.111974,326.34882 C 61.111974,310.68908 62.092624,304.43686 64.916384,302.09334 C 67.00881,300.35678 68.720795,296.92434 68.720795,294.46568 C 68.720795,292.00701 71.574103,288.1258 75.061479,285.8408 C 82.964863,280.66228 83.208117,276.7306 75.62514,276.7306 C 69.413705,276.7306 61.111974,284.64089 61.111974,290.55941 C 61.111974,292.55358 59.97065,294.89053 58.5757,295.75266 C 57.180749,296.61479 56.039426,300.30157 56.039426,303.94553 C 56.039426,307.58947 54.150562,312.65806 51.841919,315.20907 C 47.930173,319.53149 47.952923,320.18816 52.1762,324.85482 C 56.399247,329.52124 56.42603,330.2927 52.569297,336.1788 C 50.293016,339.65287 48.430605,346.96096 48.430605,352.41902 C 48.430605,358.14603 46.82172,363.67807 44.626195,365.50018 C 42.533769,367.23674 40.821784,370.62356 40.821784,373.02647 C 40.821784,378.55375 31.880075,386.83347 28.300226,384.621 C 24.149944,382.05599 25.000205,361.54996 29.408553,357.89136 C 31.895369,355.82747 33.212963,350.17827 33.212963,341.57977 C 33.212963,333.94016 34.774065,326.36165 36.93672,323.50236 C 39.303672,320.37295 40.689847,312.54081 40.741131,302.0067 L 40.821784,285.43428 L 54.771289,271.65806 C 62.443517,264.08114 68.720795,255.96763 68.720795,253.62807 C 68.720795,251.28848 70.623634,248.64411 72.949321,247.75167 C 75.88138,246.62653 76.367736,245.31893 74.535608,243.4868 C 72.70348,241.65467 68.31456,244.59624 60.220778,253.08097 C 53.80086,259.811 48.521734,266.7825 48.489396,268.57319 C 48.457059,270.3639 45.006636,275.17605 40.821784,279.26688 C 34.064492,285.87235 33.212963,288.3826 33.212963,301.6973 C 33.212963,311.9299 32.005114,317.69231 29.408553,319.84726 C 27.316127,321.58382 25.604142,326.28886 25.604142,330.30289 C 25.604142,339.00711 19.753872,339.95737 11.020569,332.67177 C 6.1041546,328.57034 5.3139532,325.46419 5.3139532,310.24023 C 5.3139532,297.62691 6.4028009,291.66568 9.1183637,289.41197 C 11.21079,287.67541 12.922774,282.3639 12.922774,277.60859 C 12.922774,272.26293 14.374994,268.40531 16.727185,267.5027 C 19.373228,266.4873 20.531595,262.35873 20.531595,253.94335 C 20.531595,246.32215 21.929361,240.68384 24.308081,238.70968 C 26.385137,236.98585 27.53904,234.69278 26.872279,233.61395 C 26.205518,232.53512 27.359421,230.24202 29.436477,228.51822 C 31.513558,226.79442 33.212963,223.47875 33.212963,221.15009 C 33.212963,218.82144 38.299435,211.92419 44.516222,205.82288 C 50.733009,199.72155 55.163448,193.6681 54.361631,192.37074 C 52.361221,189.13402 76.389345,165.13456 81.630326,165.13456 C 83.953122,165.13456 87.364359,163.3142 89.210842,161.08933 C 91.929195,157.81394 95.557766,157.36428 108.27852,158.72656 C 123.39603,160.34552 124.28941,160.1153 131.95015,152.6267 C 138.74231,145.98714 141.85374,144.83253 153.13935,144.76372 C 160.7262,144.71746 168.46686,143.09503 171.29057,140.95931 C 173.99834,138.91124 179.24275,137.23555 182.94477,137.23555 C 190.03698,137.23555 198.0406,130.43945 198.11458,124.35447 C 198.17137,119.68329 209.09469,109.33654 213.96938,109.33654 C 216.04314,109.33654 219.20052,107.57649 220.98583,105.42535 C 223.30891,102.62622 227.90433,101.7248 237.14811,102.25501 C 249.97036,102.99045 257.97022,98.684342 246.73892,97.092525 C 239.10718,96.010855 236.96309,90.042877 242.14794,84.313688 C 244.40954,81.814647 246.25994,79.003847 246.25994,78.06748 C 246.25994,74.808546 236.71466,76.390648 233.57858,80.169391 C 231.84202,82.261817 228.50221,83.973802 226.15674,83.973802 C 221.40262,83.973802 205.67957,99.060547 205.67957,103.62226 C 205.67957,105.22894 200.54017,111.98413 194.25866,118.63383 C 184.61864,128.83891 181.17902,130.83526 172.20018,131.43651 C 166.3495,131.82829 160.41807,133.29334 159.01924,134.69217 C 157.62038,136.09103 152.67369,137.23555 148.02657,137.23555 C 142.85574,137.23555 139.01078,138.71174 138.11738,141.03996 C 137.31442,143.13239 134.75088,144.84437 132.42063,144.84437 C 130.09035,144.84437 125.59422,146.65816 122.42926,148.87499 C 113.70823,154.98343 108.84457,151.74276 109.78094,140.44736 C 110.37516,133.27896 111.81843,130.71124 115.64186,130.02005 C 122.71235,128.74187 129.1638,122.4996 130.08373,116.04643 C 130.68008,111.86323 132.91254,110.41438 139.73646,109.78183 C 146.11503,109.19058 151.31675,106.15684 158.21861,99.002669 C 163.50144,93.526702 169.42879,89.046349 171.39045,89.046349 C 173.35213,89.046349 180.89391,82.769072 188.14997,75.096844 C 195.40604,67.424616 203.26098,61.147339 205.60536,61.147339 C 207.94977,61.147339 212.54846,58.294031 215.82467,54.806655 C 219.32942,51.076024 224.60368,48.465971 228.63759,48.465971 C 232.40847,48.465971 236.91457,46.753986 238.65113,44.66156 C 246.91491,34.704302 261.47759,46.341537 261.47759,62.902466 C 261.47759,68.934587 263.04351,74.507186 265.25407,76.341799 C 267.33113,78.065603 268.35289,80.572507 267.52462,81.912648 C 265.42558,85.308998 276.6125,96.65517 282.06021,96.65517 C 284.5246,96.65517 287.24633,97.796494 288.10846,99.191444 C 288.97059,100.58639 291.92707,101.72772 294.67842,101.72772 C 297.42977,101.72772 300.33784,103.4397 301.14077,105.53213 C 302.01629,107.81368 305.83935,109.33654 310.69154,109.33654 C 316.78897,109.33654 321.22317,111.83609 328.68884,119.48163 C 334.13736,125.06144 339.99436,129.62673 341.70436,129.62673 C 343.41434,129.62673 348.84204,133.42619 353.76592,138.07001 C 362.55966,146.36355 362.73149,146.91448 363.45752,169.13936 C 364.40576,198.16572 369.02097,198.91691 370.01755,170.20711 C 370.90889,144.52952 369.45401,137.23555 363.44101,137.23555 C 360.98613,137.23555 351.68622,129.87878 342.77454,120.88719 C 328.92641,106.91485 327.04696,103.96593 329.84292,100.597 C 333.48734,96.205743 352.76459,95.114562 356.72534,99.075308 C 360.55636,102.9063 381.22356,103.50732 382.52274,99.825513 C 383.16143,98.015475 381.59188,96.65517 378.86478,96.65517 C 376.23763,96.65517 372.66148,95.228516 370.9178,93.484828 C 366.28402,88.851056 321.96404,89.175395 316.28978,93.884596 C 313.03151,96.58872 311.2759,96.74252 309.05204,94.518664 C 307.43722,92.903844 303.06005,91.582623 299.32498,91.582623 C 295.58994,91.582623 291.11316,89.870638 289.3766,87.778213 C 287.64004,85.685787 284.27526,83.973802 281.89933,83.973802 C 279.5234,83.973802 275.07042,81.30308 272.00383,78.038846 C 263.94627,69.461929 264.75088,47.257081 273.43875,38.440309 C 281.9022,29.85132 287.83368,33.789975 288.91913,48.719699 C 289.92045,62.492705 295.24274,68.75616 305.94491,68.75616 C 310.44025,68.75616 315.53905,70.468145 317.27561,72.56057 C 319.82132,75.62794 327.68823,76.364981 357.88297,76.364981 L 395.33298,76.364981 L 407.02977,87.896301 C 413.463,94.238533 418.72655,101.65713 418.72655,104.38208 C 418.72655,107.80557 420.48995,109.36117 424.43317,109.41623 C 434.42386,109.55577 439.44296,120.03903 439.52263,140.93316 C 439.59118,158.91374 433.53309,180.3522 428.38354,180.3522 C 427.25706,180.3522 426.33538,184.20708 426.33538,188.91859 C 426.33538,193.63013 424.62339,198.90583 422.53097,200.64239 C 417.10438,205.14605 417.20515,236.80276 422.66049,241.33026 C 425.05517,243.31766 426.29563,247.65679 425.83083,252.41996 C 425.18637,259.02409 423.88021,260.37684 417.45842,261.09108 C 413.27357,261.55654 407.82007,263.75987 405.33957,265.98741 C 401.14708,269.7523 400.06881,269.2909 390.02593,259.43454 C 384.08392,253.60291 377.9786,248.83159 376.45851,248.83159 C 374.93845,248.83159 372.27392,247.11961 370.53735,245.02718 C 368.80079,242.93476 365.48342,241.22277 363.16542,241.22277 C 360.84739,241.22277 352.81256,235.00728 345.31021,227.41055 C 337.80783,219.81383 330.99888,213.67171 330.1792,213.76139 C 324.85638,214.34377 322.34815,212.73088 322.34815,208.72572 C 322.34815,206.19681 318.92419,200.84732 314.73933,196.83798 C 310.55448,192.82864 307.13051,187.54652 307.13051,185.09993 C 307.13051,182.65331 305.98919,179.9462 304.59424,179.08406 C 303.19929,178.22193 302.05797,174.35889 302.05797,170.49954 C 302.05797,163.61551 293.12846,152.45319 287.62147,152.45319 C 286.13851,152.45319 283.50434,150.74121 281.76778,148.64878 C 280.03121,146.55636 276.50166,144.84437 273.92432,144.84437 C 271.34699,144.84437 266.7261,141.44647 263.65566,137.29348 L 258.07305,129.74261 L 249.40652,138.66626 C 242.34093,145.94149 241.30719,148.27336 243.81052,151.2897 C 246.23063,154.20576 246.14368,155.88272 243.40015,159.20632 C 240.68644,162.49382 240.61799,163.65835 243.08961,164.49022 C 247.47835,165.96735 247.06881,171.89028 242.45554,173.66057 C 239.85644,174.65794 238.65113,178.72389 238.65113,186.4943 C 238.65113,197.00969 237.97805,198.18753 229.73324,202.09994 C 219.39627,207.00514 217.11152,209.71594 221.1898,212.23646 C 222.7912,213.22616 225.14918,212.16372 226.42977,209.87544 C 227.88632,207.27272 232.03463,205.71494 237.50902,205.71494 L 246.25994,205.71494 L 246.25994,193.34411 C 246.25994,185.44197 247.6342,179.83277 250.06436,177.81593 C 252.15678,176.07937 253.86877,171.57327 253.86877,167.80239 C 253.86877,163.86901 256.43091,158.53923 259.8789,155.29998 L 265.88905,149.65375 L 276.05928,154.95477 C 290.04488,162.24448 293.54273,166.95441 295.60561,181.27426 C 297.22345,192.50468 296.75436,194.26531 290.36881,200.93039 C 286.51122,204.95685 281.54007,208.25121 279.32177,208.25121 C 272.13316,208.25121 261.1304,223.397 261.98147,232.1209 C 262.73844,239.88002 262.89914,239.96189 278.85134,240.71633 C 291.18171,241.29947 294.7027,240.70494 293.87229,238.18006 C 293.26181,236.32381 287.32993,234.32771 280.30295,233.61395 C 269.93182,232.56051 267.81827,231.48708 267.81827,227.27326 C 267.81827,223.99457 269.77123,221.92264 273.3407,221.4144 C 276.37804,220.98191 280.22709,218.9846 281.89413,216.97592 C 283.5612,214.96721 286.35765,213.32376 288.10846,213.32376 C 289.85928,213.32376 292.71258,211.61177 294.44914,209.51935 C 299.77273,203.10483 304.70261,205.15277 318.87064,219.66444 C 326.3612,227.33667 333.91727,233.66145 335.66189,233.71953 C 337.40652,233.77759 343.20206,237.68406 348.54089,242.40057 L 358.24784,250.97601 L 352.97937,256.24449 C 350.0817,259.14215 345.42825,261.51296 342.63834,261.51296 C 339.82027,261.51296 337.5658,263.20382 337.5658,265.31737 C 337.5658,267.4098 339.70869,269.12178 342.3278,269.12178 C 344.94689,269.12178 348.5106,267.4098 350.24717,265.31737 C 353.83016,261.00013 374.38856,260.02115 376.87804,264.04924 C 377.74017,265.44419 380.19549,266.58551 382.3343,266.58551 C 384.47311,266.58551 389.02301,268.78796 392.44521,271.47986 C 396.8461,274.94159 401.08073,275.98258 406.91241,275.03622 C 412.63909,274.10691 416.18473,274.93601 418.52069,277.75069 C 420.37047,279.97955 423.89403,281.80315 426.3508,281.80315 C 428.80758,281.80315 434.94214,286.36844 439.98317,291.94825 C 445.02416,297.52805 450.57827,302.13131 452.32559,302.17772 C 458.77941,302.34912 466.55053,311.61286 467.36074,320.10068 C 468.00057,326.80372 469.45479,328.90472 473.89051,329.53468 C 478.53818,330.19475 479.59712,329.13583 479.59712,323.82807 C 479.59712,316.74245 479.61062,316.73771 499.56901,316.81907 C 512.05303,316.86998 514.08083,317.7389 523.66361,327.14368 C 529.41849,332.79166 534.983,337.45513 536.02921,337.50695 C 537.07543,337.55877 539.07274,337.60117 540.46769,337.60117 C 541.86264,337.60117 543.00397,339.68487 543.00397,342.23162 C 543.00397,344.77835 545.85727,349.54258 549.34465,352.81881 C 553.54868,356.76827 555.68533,361.51329 555.68533,366.89988 C 555.68533,371.36823 557.39732,376.44499 559.48974,378.18155 C 565.71498,383.34804 564.49252,402.99962 557.58754,408.75998 C 554.4489,411.37833 550.0057,413.55859 547.7138,413.605 C 545.42187,413.65141 542.91832,415.32685 542.15031,417.32823 C 540.38922,421.91759 526.25416,421.7597 522.39322,417.10754 C 520.83295,415.22756 517.55324,413.68938 515.10495,413.68938 C 512.65666,413.68938 509.23269,411.9774 507.49613,409.88497 C 505.75957,407.79255 501.10072,406.08056 497.14312,406.08056 C 492.82316,406.08056 487.6259,403.62816 484.13824,399.94405 C 478.88651,394.39648 472.19186,392.32911 462.03518,393.11845 C 456.84761,393.52159 469.07603,406.08056 474.65613,406.08056 C 477.03206,406.08056 480.39684,407.79255 482.1334,409.88497 C 483.86996,411.9774 488.50764,413.68938 492.43937,413.68938 C 496.37107,413.68938 500.29332,414.83071 501.15545,416.22566 C 502.01758,417.62061 504.87089,418.76193 507.49613,418.76193 C 514.45904,418.76193 516.61028,424.06995 511.23912,427.99744 C 508.68666,429.86383 507.37345,432.16606 508.32088,433.11349 C 509.2683,434.06091 508.44683,436.64068 506.49537,438.8463 C 504.54391,441.05192 502.53244,445.13918 502.02544,447.92908 C 501.50102,450.81493 498.73417,453.3406 495.6071,453.78795 C 492.58401,454.22043 488.74663,456.21775 487.07959,458.22642 C 485.41252,460.23513 480.19368,461.87858 475.48217,461.87858 C 467.29363,461.87858 466.91575,461.46436 466.91575,452.48831 C 466.91575,445.3608 468.87028,441.08144 475.02688,434.72945 C 480.97422,428.59336 482.38639,425.60924 480.32044,423.54329 C 477.06072,420.28357 471.15166,422.96514 473.43897,426.6661 C 474.28236,428.03072 466.08746,438.22377 455.22812,449.31731 L 435.48382,469.4874 L 412.52161,469.3962 C 392.55345,469.31686 388.65198,468.56197 382.60018,463.60667 z M 419.18423,433.3455 C 419.78474,429.11723 421.96581,427.41965 427.60351,426.79263 C 435.11875,425.95678 444.08929,419.99299 444.08929,415.83256 C 444.08929,412.82248 434.57684,413.15012 432.67606,416.22566 C 431.81393,417.62061 429.33947,418.76193 427.17724,418.76193 C 421.76339,418.76193 411.21497,429.20235 411.16156,434.61364 C 411.09701,441.15078 418.23596,440.02235 419.18423,433.3455 z M 348.97903,430.17516 C 348.97903,428.78021 341.84576,427.2991 333.12732,426.88379 C 319.99082,426.25804 317.27561,426.8218 317.27561,430.17516 C 317.27561,433.52852 319.99082,434.09228 333.12732,433.46653 C 341.84576,433.05122 348.97903,431.57011 348.97903,430.17516 z M 404.77705,412.2029 C 404.77705,408.2562 406.91079,407.20284 416.19028,406.56852 C 425.85815,405.90761 429.44584,403.98291 439.65081,393.98249 C 450.20514,383.63969 451.69811,380.86749 451.69811,371.6127 C 451.69811,365.18634 450.16549,359.77678 447.78512,357.80125 C 445.42984,355.84654 444.16776,351.4649 444.61478,346.79458 C 445.29067,339.73291 444.55944,338.88668 436.48047,337.38087 C 431.59814,336.47088 423.89421,333.78192 419.36062,331.40544 C 411.91808,327.50409 411.11773,325.97388 411.11773,315.64572 C 411.11773,307.81583 410.14832,304.53004 408.04506,305.23112 C 406.35509,305.79445 404.92844,309.59886 404.87472,313.68538 C 404.78935,320.18032 403.68526,321.27498 396.1017,322.38353 C 385.69765,323.90436 382.26075,329.99235 391.80622,329.99235 C 398.36563,329.99235 417.57856,338.76436 420.15704,342.9364 C 420.92987,344.18689 423.72393,345.20999 426.36606,345.20999 C 429.38674,345.20999 432.77523,348.5929 435.49452,354.32338 C 439.17491,362.07921 439.28709,363.80816 436.24759,365.9297 C 433.50555,367.84365 433.41239,368.7214 435.8464,369.70903 C 441.1448,371.85893 439.44786,376.65872 430.35824,385.23227 C 424.6188,390.64587 419.16561,393.39919 414.18302,393.39919 C 410.04882,393.39919 405.25463,395.10015 403.52925,397.17908 C 397.56325,404.36769 374.54051,393.87228 377.15607,385.1563 C 378.97939,379.08036 372.49931,379.41859 366.81844,385.6959 C 361.49739,391.57561 363.29419,398.47174 370.1472,398.47174 C 372.81008,398.47174 376.35486,400.11776 378.02451,402.12955 C 379.69414,404.14133 384.68451,406.13864 389.11422,406.56803 C 395.30762,407.16834 397.35989,408.70079 397.99784,413.20148 C 398.97725,420.1109 404.77705,419.25658 404.77705,412.2029 z M 458.67251,407.137 C 456.25557,404.72003 451.40992,408.63492 453.21115,411.54935 C 454.28176,413.28163 455.7004,413.23788 457.5219,411.41637 C 459.01516,409.92312 459.53294,407.9974 458.67251,407.137 z M 68.600778,394.81195 C 71.95533,390.76994 85.486451,391.39642 89.887546,395.79752 C 93.499935,399.40991 105.03524,399.18689 108.79006,395.43204 C 113.46104,390.76106 157.29143,390.7899 164.58012,395.46874 C 169.43807,398.58722 171.41794,398.66196 176.54096,395.9202 C 181.33081,393.35676 183.48576,393.30314 186.34525,395.67631 C 190.68203,399.27551 193.74904,395.77074 191.46696,389.82366 C 190.22131,386.57758 185.74078,385.79037 168.51114,385.79037 C 148.93375,385.79037 146.60058,385.24817 141.22672,379.44969 C 137.99472,375.96231 134.0546,373.109 132.47087,373.109 C 130.88715,373.109 129.59136,375.96231 129.59136,379.44969 C 129.59136,385.36765 128.74595,385.79037 116.90999,385.79037 C 109.93524,385.79037 104.22863,386.9317 104.22863,388.32665 C 104.22863,389.7216 101.94598,390.86292 99.156079,390.86292 C 96.366178,390.86292 94.083531,389.7216 94.083531,388.32665 C 94.083531,386.9317 91.155201,385.79037 87.576113,385.79037 C 83.997025,385.79037 78.766138,384.55807 75.951888,383.05196 C 71.940442,380.90508 69.784888,381.26396 65.973528,384.71317 C 61.042936,389.17531 59.26194,398.47174 63.337681,398.47174 C 64.561838,398.47174 66.930236,396.82484 68.600778,394.81195 z M 515.10495,365.20722 C 515.10495,357.2143 513.06084,353.52141 502.59349,342.60418 C 494.91604,334.59675 488.37118,329.88446 485.654,330.40772 C 478.68018,331.75078 480.14202,336.24982 487.84001,337.13556 C 493.22031,337.75464 494.81477,339.28706 494.81477,343.83896 C 494.81477,347.08445 496.52675,350.39677 498.61918,351.19973 C 500.7116,352.00267 502.42359,354.74981 502.42359,357.30452 C 502.42359,359.85921 503.76621,363.29203 505.40718,364.933 C 507.69447,367.22028 507.32671,369.09238 503.83145,372.95462 C 501.14736,375.92051 499.94742,379.75247 500.91405,382.27142 C 502.37874,386.08841 503.23319,385.91402 508.83047,380.65564 C 513.35191,376.40796 515.10495,372.09178 515.10495,365.20722 z M 104.22863,366.76832 C 105.96519,364.67589 108.73434,362.96391 110.38234,362.96391 C 112.03031,362.96391 117.25041,358.96928 121.98254,354.08695 C 132.30124,343.44074 135.25357,343.11853 141.67767,351.93738 C 144.50493,355.81862 147.81353,357.90133 149.49802,356.86027 C 154.05712,354.04259 153.03607,351.08989 144.47366,342.33066 C 136.73113,334.41019 136.54156,333.65671 137.00471,312.64355 C 137.4794,291.1063 137.49064,291.07278 147.48513,281.37343 C 156.26766,272.85028 157.49037,270.24274 157.49037,260.03629 C 157.49037,251.86838 156.54711,248.71952 154.32003,249.45296 C 152.57634,250.02722 150.80813,252.79891 150.39068,255.61227 C 149.97324,258.42563 145.12262,265.13047 139.61152,270.51191 L 129.59136,280.29635 L 129.59136,301.19025 C 129.59136,312.6819 128.45004,322.78954 127.05509,323.65167 C 125.66014,324.5138 124.51882,327.29472 124.51882,329.83148 C 124.51882,332.36826 122.80683,335.86461 120.71441,337.60117 C 118.62198,339.33773 116.90999,342.68181 116.90999,345.03245 C 116.90999,348.78079 101.62281,357.89136 95.333204,357.89136 C 92.455548,357.89136 83.938437,365.76822 83.938437,368.42955 C 83.938437,372.14243 100.92257,370.75187 104.22863,366.76832 z M 345.34135,362.87468 C 349.23884,360.7888 350.24717,357.50197 350.24717,346.88315 C 350.24717,334.16381 349.63653,332.93189 337.62682,321.42223 C 330.68565,314.77004 324.02676,309.93286 322.82934,310.67292 C 321.63189,311.41298 315.66018,306.93202 309.55884,300.71523 C 303.45753,294.49844 296.56029,289.41197 294.23163,289.41197 C 291.90298,289.41197 288.57688,287.69999 286.84032,285.60756 C 285.10376,283.51514 280.62699,281.80315 276.89194,281.80315 C 273.15687,281.80315 268.91544,280.61767 267.46652,279.16875 C 264.01797,275.7202 230.15378,274.70326 228.50604,277.99874 C 227.77473,279.46136 232.25224,280.85877 239.08313,281.2998 C 245.598,281.72042 252.30036,283.71773 253.97724,285.73828 C 255.66665,287.77389 261.35148,289.41197 266.72648,289.41197 C 272.2026,289.41197 281.61989,292.17316 288.35199,295.75266 C 294.91085,299.24003 301.8192,302.09334 303.70385,302.09334 C 305.58851,302.09334 307.13051,304.12964 307.13051,306.61846 C 307.13051,310.83316 333.78033,339.63458 336.38539,338.23524 C 340.67408,335.93152 342.63834,338.91927 342.63834,347.74627 C 342.63834,353.32607 341.49702,357.89136 340.10207,357.89136 C 338.70712,357.89136 337.5658,359.60335 337.5658,361.69577 C 337.5658,366.19563 338.78945,366.38113 345.34135,362.87468 z M 241.33375,353.91063 C 243.24026,351.61343 246.79431,350.49391 249.73738,351.26355 C 252.54235,351.99706 258.68063,350.77344 263.37802,348.54436 C 269.77823,345.50727 272.64442,345.21722 274.81423,347.38703 C 277.92908,350.50188 286.84032,351.3859 286.84032,348.58004 C 286.84032,347.64367 284.95146,344.79037 282.64282,342.23936 C 277.62193,336.69133 267.16543,336.33793 260.35876,341.48624 C 257.48171,343.66233 249.90153,345.20999 242.12047,345.20999 C 234.79719,345.20999 228.18134,346.21973 227.41863,347.45383 C 225.00562,351.35815 210.83917,352.17531 207.85714,348.5822 C 206.31788,346.7275 203.05532,345.20999 200.60703,345.20999 C 198.15874,345.20999 194.68906,343.44292 192.89663,341.28318 C 188.341,335.79398 179.0487,337.57802 179.0487,343.94186 C 179.0487,347.78558 180.99978,349.20353 187.10271,349.79507 C 191.53242,350.22446 196.52279,352.22178 198.19242,354.23355 C 202.63787,359.59001 236.8327,359.33405 241.33375,353.91063 z M 83.193533,329.99235 C 84.656557,329.99235 87.274423,328.28037 89.010984,326.18794 C 90.747545,324.09552 94.311263,322.38353 96.930346,322.38353 C 100.6489,322.38353 101.69235,320.50646 101.69235,313.81711 C 101.69235,309.10561 103.40434,303.8299 105.49676,302.09334 C 108.07202,299.95607 109.30117,294.21999 109.30117,284.33943 C 109.30117,274.45886 110.53033,268.72278 113.10558,266.58551 C 115.19801,264.84895 116.90999,261.73484 116.90999,259.66521 C 116.90999,257.59564 119.7633,253.65789 123.25068,250.91474 C 127.81062,247.32789 129.59136,243.48581 129.59136,237.23428 C 129.59136,227.20862 125.79958,225.62938 123.52145,234.70622 C 122.55612,238.55236 119.82937,241.1757 116.27174,241.68098 C 112.20797,242.25818 110.34077,244.47379 109.77396,249.39125 C 109.3365,253.18643 106.13481,261.64003 102.65908,268.177 C 97.692446,277.51791 97.048258,280.50369 99.650018,282.12353 C 102.31889,283.7852 102.34605,285.17607 99.790147,289.30017 C 98.046459,292.11371 96.619805,296.109 96.619805,298.17858 C 96.619805,300.24818 93.164868,304.49583 88.942175,307.6178 C 84.719482,310.73978 81.844388,314.80509 82.553048,316.65188 C 83.295745,318.58729 81.280498,320.98336 77.795683,322.30828 C 70.354231,325.13752 67.789703,328.98023 69.817074,334.26346 C 71.221383,337.92305 71.782407,337.91192 75.948135,334.142 C 78.470053,331.85968 81.730484,329.99235 83.193533,329.99235 z M 274.15896,321.11539 C 274.15896,317.84847 263.49088,309.70216 259.21267,309.70216 C 256.572,309.70216 253.75453,307.99018 252.95157,305.89775 C 251.92474,303.22186 247.75074,302.09334 238.88041,302.09334 C 231.94421,302.09334 225.56376,300.95202 224.70163,299.55707 C 223.8395,298.16212 221.48652,297.02079 219.47279,297.02079 C 217.45907,297.02079 211.80401,292.58503 206.90604,287.16357 C 199.2507,278.69 196.01277,277.05796 183.83939,275.53698 C 171.43394,273.98704 169.06758,274.42303 164.7536,279.05355 C 162.04509,281.96078 158.16152,284.33943 156.12345,284.33943 C 154.08535,284.33943 152.41783,285.48075 152.41783,286.8757 C 152.41783,290.90766 162.56804,289.81352 164.182,285.60756 C 165.06792,283.29892 168.90325,281.80315 173.93694,281.80315 C 178.49924,281.80315 183.65282,283.51514 185.38938,285.60756 C 187.12595,287.69999 191.83099,289.41197 195.84502,289.41197 C 199.87364,289.41197 205.52555,291.79422 208.46075,294.72942 L 213.7782,300.04687 L 205.29041,307.20099 C 197.86235,313.46186 197.36858,314.57802 201.33555,316.14064 C 204.11251,317.23449 207.62865,316.33327 210.41223,313.81417 C 216.69958,308.12419 252.62498,307.87516 254.78596,313.50657 C 255.58889,315.599 258.5643,317.31098 261.398,317.31098 C 264.23168,317.31098 266.55013,318.45231 266.55013,319.84726 C 266.55013,321.24221 268.26212,322.38353 270.35454,322.38353 C 272.44697,322.38353 274.15896,321.81287 274.15896,321.11539 z M 245.34276,252.636 C 246.14571,250.54358 248.82343,248.83159 251.29328,248.83159 C 253.76316,248.83159 257.20475,247.11961 258.94131,245.02718 C 261.61297,241.80802 261.06326,241.22277 255.36786,241.22277 C 251.66589,241.22277 247.98007,242.93476 247.17714,245.02718 C 246.29122,247.33583 242.45587,248.83159 237.42221,248.83159 C 232.85991,248.83159 227.70632,247.11961 225.96976,245.02718 C 222.61415,240.98393 213.28839,239.76228 213.28839,243.36595 C 213.28839,246.02706 220.86615,252.76452 225.96976,254.64108 C 233.62774,257.45688 243.90084,256.39362 245.34276,252.636 z M 94.083531,232.65635 C 94.083531,227.94484 95.726986,222.72601 97.735689,221.05894 C 99.744367,219.3919 101.74168,215.54285 102.17417,212.50551 C 102.78173,208.23843 104.97607,206.79184 111.82725,206.14177 C 116.704,205.67908 122.27997,203.98429 124.21832,202.3756 C 126.15667,200.7669 129.01456,199.4335 130.56917,199.41248 C 132.12381,199.39145 133.96644,198.23293 134.66391,196.83798 C 136.8886,192.38857 113.08935,192.2735 109.40255,196.71583 C 105.29708,201.66261 97.60847,201.80454 95.75245,196.96781 C 94.889813,194.71984 96.332699,192.66155 99.468928,191.66614 C 102.76365,190.62043 104.06105,188.64635 103.09986,186.1415 C 102.25459,183.93877 103.55167,180.81997 106.08279,178.9692 C 108.546,177.16806 109.74302,174.87608 108.74286,173.87593 C 106.36057,171.49361 94.183968,183.09211 94.127358,187.79756 C 94.103238,189.80007 91.653452,194.02518 88.683374,197.18669 C 84.311244,201.84063 83.215827,206.36902 82.929152,220.97445 C 82.540925,240.7546 82.691326,241.22277 89.433705,241.22277 C 93.02484,241.22277 94.083531,239.27233 94.083531,232.65635 z M 364.00845,209.09523 C 366.16804,203.46745 361.39898,198.62116 357.51922,202.50092 C 354.41414,205.60601 356.21263,213.32376 360.04132,213.32376 C 361.33078,213.32376 363.11602,211.42092 364.00845,209.09523 z M 201.04139,201.51743 C 206.63953,196.4512 207.1617,187.96102 201.87516,187.96102 C 199.78274,187.96102 198.07075,190.17631 198.07075,192.88388 C 198.07075,195.59145 196.92943,198.51212 195.53448,199.37425 C 192.68376,201.1361 192.08165,205.71494 194.7007,205.71494 C 195.63707,205.71494 198.49038,203.82607 201.04139,201.51743 z M 150.33922,172.10931 C 151.08479,166.85976 152.4701,166.4027 167.63547,166.4027 C 182.91946,166.4027 184.18169,166.82902 184.95025,172.25079 C 185.66863,177.31849 187.02244,177.99539 195.09535,177.32333 C 203.5611,176.61858 204.48397,175.79541 205.2062,168.3049 L 206.00097,160.06201 L 176.23876,160.06201 C 144.66829,160.06201 137.20018,162.56316 137.20018,173.13648 C 137.20018,180.43488 149.29106,179.48967 150.33922,172.10931 z M 572.25937,365.23745 C 567.3285,360.90808 563.29415,355.5199 563.29415,353.2637 C 563.29415,351.00748 556.87946,342.67915 549.03926,334.75631 C 535.33503,320.90757 533.09221,314.01312 542.59459,314.9454 C 552.05828,315.8739 555.68533,314.55902 555.68533,310.1997 C 555.68533,307.68344 559.69234,301.74093 564.58978,296.99414 C 575.77145,286.15644 583.58434,270.26219 583.58434,258.35233 C 583.58434,250.88248 584.60451,249.03427 589.09229,248.37392 C 592.12167,247.92817 595.09545,246.06071 595.70068,244.22405 C 596.51117,241.76457 594.22444,241.09626 587.02239,241.68777 C 577.87509,242.43904 577.19103,243.06411 576.42875,251.36787 C 575.98057,256.25019 574.55392,261.32908 573.25841,262.65429 C 571.96293,263.97949 570.90298,267.68549 570.90298,270.88987 C 570.90298,276.90452 554.67458,297.02079 549.82238,297.02079 C 548.31733,297.02079 544.04171,299.93736 540.32097,303.50206 C 532.33866,311.14959 519.38935,313.59641 514.98494,308.28941 C 513.04352,305.95013 507.13844,304.62961 498.61918,304.62961 C 490.09484,304.62961 484.19508,303.30941 482.2509,300.9668 C 480.57899,298.95224 475.01796,296.95493 469.89306,296.52833 C 462.44966,295.90871 460.41201,294.60461 459.7646,290.04604 C 459.25918,286.48734 457.19615,284.33943 454.28344,284.33943 C 447.59386,284.33943 436.60647,270.45596 438.26791,264.10255 C 439.00906,261.26847 438.44621,257.52908 437.01717,255.79283 C 435.58813,254.05657 433.61184,247.21472 432.62544,240.5887 C 431.63903,233.96269 429.82024,228.5414 428.58368,228.5414 C 427.34712,228.5414 426.33538,225.11743 426.33538,220.93258 C 426.33538,215.40766 427.55099,213.30167 430.77385,213.24311 C 433.21502,213.19872 437.42779,211.48674 440.13557,209.4387 C 446.47912,204.64065 455.28874,204.67773 459.30693,209.51935 C 461.04349,211.61177 464.46746,213.32376 466.91575,213.32376 C 469.36405,213.32376 472.78801,215.03574 474.52458,217.12817 C 476.26114,219.2206 479.05525,220.93258 480.7337,220.93258 C 482.41216,220.93258 486.46599,223.78589 489.74222,227.27326 C 493.01845,230.76064 497.44965,233.61395 499.58935,233.61395 C 501.99764,233.61395 499.17208,229.22292 492.1725,222.08785 C 478.76198,208.41777 457.08739,197.29342 448.20627,199.52242 C 444.44434,200.46663 441.31539,199.77351 440.04259,197.71409 C 437.11725,192.98079 438.84288,177.26228 442.78395,172.74338 C 444.60882,170.65095 446.51613,166.65632 447.02244,163.86642 C 447.79245,159.62347 450.25771,158.67145 462.09638,158.04535 C 472.46302,157.49708 477.11992,158.34528 479.50211,161.21569 C 481.29092,163.37106 484.84069,165.13456 487.39046,165.13456 C 489.94025,165.13456 493.0742,167.00679 494.35476,169.29506 C 495.63581,171.58415 498.00289,172.63988 499.61725,171.64216 C 501.50847,170.47331 497.87754,165.61386 489.4021,157.97063 C 478.81468,148.42282 473.98435,145.86545 464.60952,144.84437 C 453.29082,143.61159 452.94459,143.31573 452.18896,134.23093 C 451.59253,127.05997 449.03211,122.73588 441.18424,115.6458 C 435.55917,110.56387 431.65841,105.70434 432.51589,104.84685 C 434.90222,102.46055 408.07258,76.364981 403.23284,76.364981 C 400.89325,76.364981 398.32213,74.652996 397.51917,72.56057 C 396.31873,69.432229 389.81618,68.75616 360.92838,68.75616 L 325.79749,68.75616 L 315.16535,59.655452 C 300.14698,46.800298 298.50115,42.838639 304.83415,34.787517 C 307.69461,31.151058 312.09501,28.175781 314.61288,28.175781 C 317.13071,28.175781 320.61159,26.463796 322.34815,24.371371 C 326.70661,19.119762 353.49753,19.119762 357.85599,24.371371 C 359.62818,26.506761 365.15693,28.175781 370.45825,28.175781 C 375.65292,28.175781 383.4879,29.964108 387.86931,32.149843 C 392.2507,34.335578 396.8167,35.517482 398.01595,34.776307 C 399.2152,34.035106 403.4379,36.812072 407.39973,40.947339 C 412.61556,46.391476 416.9797,48.465971 423.21682,48.465971 C 428.98063,48.465971 431.48099,47.417018 430.77385,45.295628 C 430.19262,43.55194 428.38552,41.982621 426.7581,41.808252 C 425.13065,41.633883 422.56267,41.348552 421.05148,41.174184 C 419.54027,40.999815 418.79174,39.430496 419.38804,37.686807 C 420.08846,35.638766 425.68817,34.516465 435.2063,34.516465 C 444.7212,34.516465 450.32652,33.393454 451.03057,31.346123 C 451.85962,28.935344 445.23417,28.155567 423.37638,28.091399 C 398.73126,28.019065 393.79052,27.305763 388.73187,23.089715 C 385.48681,20.385185 383.55686,16.999184 384.44306,15.565276 C 385.45166,13.933336 403.44771,12.958139 432.55439,12.958139 C 471.54806,12.958139 479.29008,13.572272 480.51432,16.76255 C 481.31725,18.854975 484.1529,20.56696 486.81579,20.56696 C 489.47867,20.56696 493.0782,22.278945 494.81477,24.371371 C 496.55133,26.463796 501.24252,28.175781 505.23966,28.175781 C 510.43613,28.175781 515.22632,31.065662 522.04897,38.316716 C 527.29692,43.89421 533.62386,48.459503 536.1088,48.461811 C 538.59377,48.464094 541.28384,50.177955 542.08677,52.270381 C 542.88973,54.362807 544.56588,56.074792 545.81159,56.074792 C 550.76506,56.074792 547.57151,50.177752 537.93142,41.523631 C 532.35162,36.514542 527.78632,31.462107 527.78632,30.296004 C 527.78632,25.85958 545.76896,28.440112 557.197,34.516465 C 563.75586,38.003842 571.59198,40.857149 574.61063,40.857149 C 577.62925,40.857149 583.34053,44.240539 587.30234,48.375781 C 591.26418,52.511048 595.3382,55.379903 596.35572,54.751034 C 597.37325,54.122165 601.01225,55.815204 604.44238,58.513343 C 607.87251,61.211481 612.85728,62.856001 615.51966,62.167809 C 622.5671,60.346105 648.20127,86.6813 646.33338,93.824207 C 645.58419,96.68903 646.56218,100.31922 648.52114,101.94503 C 650.46958,103.56205 652.06373,108.60023 652.06373,113.14095 C 652.06373,117.68167 653.77572,122.81762 655.86814,124.55418 C 657.96057,126.29074 659.67255,129.14405 659.67255,130.89487 C 659.67255,132.64568 661.43529,135.54109 663.58973,137.32914 C 666.1891,139.48644 667.00441,142.86788 666.01324,147.38064 C 665.02206,151.89341 665.83737,155.27485 668.43675,157.43215 C 670.59119,159.2202 672.35392,164.62167 672.35392,169.4355 C 672.35392,176.19548 673.30241,178.0012 676.52056,177.36782 C 678.81221,176.91682 681.95085,174.47373 683.49532,171.93875 C 685.81317,168.13436 685.08574,166.34654 679.32868,161.69837 C 671.74742,155.57737 670.08482,146.25781 676.15833,143.92718 C 682.00376,141.6841 680.67328,134.84387 673.88994,132.26486 C 668.51575,130.22159 659.67255,117.29539 659.67255,111.48314 C 659.67255,107.76775 676.65496,109.1553 679.96274,113.14095 C 681.6993,115.23338 684.69236,116.94536 686.61397,116.94536 C 691.054,116.94536 700.25293,126.03372 700.25293,130.42035 C 700.25293,132.2518 703.6769,137.03062 707.86175,141.03996 C 712.04661,145.0493 715.47058,150.25904 715.47058,152.61716 C 715.47058,154.97526 717.11471,158.26915 719.12423,159.9369 C 721.13374,161.60462 722.15665,164.58807 721.39734,166.56674 C 720.63806,168.54544 721.84722,170.86674 724.08439,171.72522 C 726.32154,172.5837 728.15194,175.30687 728.15194,177.77672 C 728.15194,180.24659 729.86393,183.68819 731.95635,185.42475 C 734.24732,187.32607 735.76076,192.87538 735.76076,199.37425 C 735.76076,205.87313 734.24732,211.42242 731.95635,213.32376 C 729.86393,215.06032 728.15194,218.48429 728.15194,220.93258 C 728.15194,223.38087 726.43996,226.80484 724.34753,228.5414 C 722.01852,230.47432 720.54312,236.03538 720.54312,242.88106 C 720.54312,259.87022 715.26983,259.86091 698.07088,242.84142 C 690.12293,234.97641 682.39315,228.5414 680.89363,228.5414 C 674.70018,228.5414 664.7451,215.99902 664.7451,208.19592 C 664.7451,201.44748 663.90937,200.40829 659.03849,201.10006 C 654.23486,201.78229 653.20359,203.71577 652.5212,213.31917 C 651.65922,225.45019 646.39372,233.61395 639.43139,233.61395 C 634.18057,233.61395 624.98445,243.28672 623.75793,250.09973 C 623.22656,253.0515 620.46973,255.51112 617.16405,255.98274 C 609.11579,257.13099 609.3538,266.58551 617.43094,266.58551 C 623.9916,266.58551 631.77354,259.46578 631.77354,253.46346 C 631.77354,248.70224 639.74183,241.22277 644.81418,241.22277 C 646.88451,241.22277 651.8588,237.7988 655.86814,233.61395 C 664.93352,224.15172 667.0836,224.14196 676.07048,233.52224 C 682.09608,239.81162 682.74422,241.6757 680.03886,244.93547 C 678.26042,247.07834 674.91206,248.83159 672.59804,248.83159 C 668.56668,248.83159 639.38236,276.19471 639.38236,279.9745 C 639.38236,285.74067 650.23531,279.97777 662.20883,267.85365 C 679.11664,250.73316 686.12536,249.75259 699.06933,262.69656 C 706.43523,270.06244 707.86175,273.29814 707.86175,282.63967 C 707.86175,292.73523 706.67204,294.90321 695.28904,305.55069 C 686.14529,314.10359 680.65236,317.31098 675.14854,317.31098 C 670.98624,317.31098 666.87537,318.45231 666.01324,319.84726 C 665.15111,321.24221 661.22886,322.38353 657.29716,322.38353 C 653.36542,322.38353 648.76607,324.04933 647.07635,326.08532 C 644.989,328.60042 637.77533,330.02324 624.57342,330.5238 C 598.07443,331.52847 599.75405,336.15334 626.94724,337.06019 C 644.1115,337.6326 649.44021,336.9579 651.98648,333.88984 C 653.76552,331.74624 657.24189,329.99235 659.71177,329.99235 C 662.18161,329.99235 664.85934,328.28037 665.66229,326.18794 C 666.6923,323.50378 670.87974,322.38353 679.88316,322.38353 C 694.54292,322.38353 696.23806,325.73179 686.30343,335.0649 C 682.81605,338.34113 679.96274,343.14118 679.96274,345.7317 C 679.96274,348.32223 677.96543,351.05991 675.52426,351.81541 C 673.0831,352.57094 669.10397,354.24712 666.68172,355.54024 C 664.25948,356.83336 658.96032,357.89136 654.90578,357.89136 C 650.69267,357.89136 646.90835,359.52153 646.07399,361.69577 C 645.17138,364.04796 641.31376,365.50018 635.96811,365.50018 C 631.2128,365.50018 625.90128,367.21217 624.16472,369.30459 C 621.84931,372.09452 615.70305,373.109 601.11596,373.109 C 582.4835,373.109 580.65718,372.6108 572.25937,365.23745 z M 603.87453,319.84726 C 603.87453,318.45231 608.79234,317.31098 614.80301,317.31098 C 620.81367,317.31098 627.94694,315.63529 630.65472,313.58723 C 633.36249,311.53919 637.67038,309.8272 640.22778,309.78282 C 642.78972,309.73838 644.41017,308.2786 643.83659,306.53182 C 642.28029,301.79216 630.54434,301.26682 626.80742,305.76952 C 625.01232,307.93248 619.82848,309.70216 615.28776,309.70216 C 610.74705,309.70216 605.61109,311.41415 603.87453,313.50657 C 601.49898,316.36893 595.10463,317.31098 578.05156,317.31098 C 563.58702,317.31098 555.95314,318.22868 556.95347,319.84726 C 557.8156,321.24221 568.72553,322.38353 581.19776,322.38353 C 594.62477,322.38353 603.87453,321.34898 603.87453,319.84726 z M 527.96713,257.18296 L 527.52861,229.63131 L 537.38665,225.28193 C 542.8086,222.8898 549.83897,220.93258 553.00974,220.93258 C 559.6667,220.93258 570.79475,211.36621 570.85915,205.58812 C 570.88327,203.42595 572.25354,200.30633 573.90422,198.65565 C 575.55493,197.00494 576.11352,194.86243 575.14558,193.89448 C 572.47235,191.22125 563.29415,202.25752 563.29415,208.14517 C 563.29415,212.47228 561.67071,213.32376 553.42042,213.32376 C 546.78743,213.32376 543.0451,214.63083 542.01852,217.30606 C 541.10191,219.69473 538.20216,220.96342 534.77241,220.47641 C 529.59999,219.7419 529.02945,218.21255 528.79226,204.4468 C 528.59912,193.23662 527.59727,189.22916 524.98785,189.22916 C 522.16982,189.22916 521.36067,195.62044 521.03002,220.4915 C 520.68755,246.25213 519.83726,252.61254 516.19844,256.6334 C 513.76968,259.31716 510.38716,261.51296 508.68174,261.51296 C 503.32181,261.51296 498.67122,268.9202 501.96389,272.21287 C 504.10785,274.35683 506.10585,273.94342 509.81266,270.58879 C 516.30083,264.71706 520.1775,267.38641 520.1775,277.72571 C 520.1775,282.29321 520.95741,286.81019 521.91061,287.76339 C 526.41597,292.26876 528.36865,282.40935 527.96713,257.18296 z M 598.04189,217.41089 C 599.15742,215.47396 602.27161,213.47665 604.96232,212.97241 C 610.84297,211.87037 611.45852,207.29199 605.87071,206.21588 C 601.36017,205.34723 587.8534,216.7474 590.38899,219.28299 C 593.01398,221.90798 595.85169,221.2138 598.04189,217.41089 z M 690.67467,207.4063 C 687.92811,204.38362 686.13241,200.69099 686.6842,199.20044 C 687.86991,195.99748 671.36637,180.3522 666.80202,180.3522 C 660.74606,180.3522 639.38236,156.77051 639.38236,150.08581 C 639.38236,145.75672 634.82663,139.11957 625.12747,129.31811 C 611.51696,115.56411 609.10212,108.32685 618.64937,109.90335 C 621.04554,110.29903 622.89659,108.94661 622.89659,106.80027 C 622.89659,104.11169 620.59631,103.16875 615.0539,103.58531 C 609.47944,104.00428 605.50051,102.35382 601.29634,97.878694 C 598.04318,94.415844 594.11067,91.582623 592.55745,91.582623 C 591.00424,91.582623 585.7819,88.205042 580.95228,84.076876 C 576.12263,79.94871 569.17222,76.524741 565.5069,76.468055 C 561.84161,76.411369 557.42189,74.652996 555.68533,72.56057 C 553.34377,69.739144 547.09939,68.75616 531.51809,68.75616 L 510.50821,68.75616 L 497.35104,56.074792 C 490.11459,49.100039 482.21722,43.393423 479.80132,43.393423 C 477.38544,43.393423 472.72826,46.246731 469.45203,49.734107 C 465.94728,53.464738 460.67302,56.074792 456.6391,56.074792 C 448.33633,56.074792 443.44792,61.078327 446.66503,66.28375 C 448.48529,69.228997 449.59174,69.340746 452.09976,66.832751 C 453.83178,65.10073 458.06941,63.683613 461.51669,63.683613 C 464.96397,63.683613 469.89862,61.770324 472.4826,59.431879 C 476.08426,56.172413 477.87702,55.876455 480.16431,58.163743 C 481.80528,59.804712 484.97839,61.147339 487.21566,61.147339 C 494.25955,61.147339 507.06722,76.811517 507.95327,86.510076 C 508.70173,94.702493 509.47252,95.44623 517.94888,96.154738 C 526.80788,96.895229 527.19083,97.340877 528.75125,108.72542 C 530.31712,120.14956 530.00196,120.90106 518.93257,132.13944 C 512.64254,138.5255 507.52672,145.99391 507.56411,148.7359 C 507.62602,153.27784 530.10729,180.3522 533.81677,180.3522 C 537.09313,180.3522 535.23191,173.22345 531.59073,171.82619 C 529.49831,171.02325 527.78632,168.39562 527.78632,165.987 C 527.78632,163.5784 524.72684,158.4143 520.98749,154.51125 L 514.18865,147.41481 L 520.35342,140.82415 C 529.9958,130.51564 535.09472,128.56867 540.24432,133.229 C 542.67927,135.43259 546.22006,137.23555 548.11276,137.23555 C 552.62263,137.23555 563.29415,147.33152 563.29415,151.59816 C 563.29415,156.59916 571.45002,165.13456 576.22864,165.13456 C 578.53772,165.13456 581.84778,166.84654 583.58434,168.93897 C 585.32091,171.0314 590.59661,172.74338 595.30812,172.74338 C 603.42196,172.74338 603.87453,173.21657 603.87453,181.69993 C 603.87453,187.32163 605.29107,191.20007 607.67894,192.11638 C 609.77137,192.91934 611.48335,196.30747 611.48335,199.64561 C 611.48335,205.23797 612.47998,205.71494 624.16472,205.71494 C 631.13948,205.71494 636.84609,204.7505 636.84609,203.57176 C 636.84609,200.21209 628.4931,193.65407 622.89659,192.61985 C 620.10668,192.10428 617.79388,189.98913 617.757,187.91953 C 617.72013,185.84993 616.57913,182.44463 615.22144,180.3522 C 613.86375,178.25978 611.58115,174.26514 610.149,171.47524 C 608.71686,168.68534 604.15127,165.76477 600.00322,164.9851 C 586.1962,162.38988 575.97552,157.15547 575.97552,152.6796 C 575.97552,147.37806 564.56036,136.09501 552.88412,129.85545 C 548.1475,127.3243 543.91824,122.89627 543.48578,120.01539 C 543.0533,117.13454 541.05598,113.4135 539.0473,111.74646 C 537.0386,110.07939 535.39514,106.93142 535.39514,104.75098 C 535.39514,99.185484 525.28497,89.046349 519.7354,89.046349 C 516.4871,89.046349 515.10495,87.153706 515.10495,82.705665 C 515.10495,76.666062 515.80829,76.364981 529.9175,76.364981 C 541.37667,76.364981 548.25788,78.127869 560.31322,84.152001 C 568.88397,88.434854 576.55222,93.000146 577.35378,94.297095 C 578.15535,95.594019 580.68678,96.65517 582.97921,96.65517 C 588.37854,96.65517 603.87453,111.6654 603.87453,116.89547 C 603.87453,119.11063 610.15181,127.12236 617.82404,134.69928 L 631.77354,148.4755 L 631.77354,167.16147 C 631.77354,180.75816 632.61797,185.56599 634.87394,184.81399 C 636.57915,184.24558 638.6279,181.01184 639.42675,177.62789 C 641.30347,169.67804 644.70225,169.86545 654.33694,178.45 C 658.64232,182.28611 663.44057,185.42475 664.99974,185.42475 C 669.52651,185.42475 679.87093,196.41574 679.91892,201.27646 C 679.94304,203.71762 681.10407,205.71494 682.49902,205.71494 C 683.89397,205.71494 685.03529,207.76932 685.03529,210.28023 C 685.03529,212.79114 686.41239,216.22262 688.09548,217.90572 C 690.48491,220.29511 691.65027,220.08212 693.41205,216.93399 C 694.9823,214.12811 694.14992,211.23088 690.67467,207.4063 z M 715.47058,198.9841 C 715.47058,187.4592 714.44635,182.33625 711.95076,181.37861 C 710.01487,180.63573 707.80532,176.96224 707.04066,173.21531 C 705.5194,165.76094 683.68904,142.80893 680.83489,145.66308 C 679.86112,146.63683 681.88899,150.56029 685.34124,154.38185 C 688.79352,158.20341 693.23042,164.55715 695.20106,168.50129 C 697.17169,172.44539 700.82651,176.76553 703.32289,178.10154 C 707.10947,180.12805 707.86175,183.93035 707.86175,201.04218 C 707.86175,218.98706 708.33781,221.15861 711.66616,218.39631 C 714.3237,216.19076 715.47058,210.33869 715.47058,198.9841 z"
       id="path2468" />
  </g>
</svg>
